
        <svg xmlns="http://www.w3.org/2000/svg" xmlns:xlink="http://www.w3.org/1999/xlink" version="1.1" width="3168.5393258426966" 
        height="2056.179775280899" viewBox="0 0 3168.5393258426966 2056.179775280899">
			<rect fill="#00316d" width="3168.5393258426966" height="2056.179775280899"/>
			<g transform="scale(8.426966292134832) translate(10, 10)">
				<defs id="SvgjsDefs1125"></defs><g id="SvgjsG1126" featureKey="symbolFeature-0" transform="matrix(1.249640925587769,0,0,1.249640925587769,-12.080278598840875,50.838494073615664)" fill="#ffffff"><path xmlns="http://www.w3.org/2000/svg" d="M86.03,60.168c-0.846-7.203-6.723-12.885-14.013-13.43v-1.055c0-2.44-1.984-4.426-4.426-4.426H32.77  c-2.44,0-4.426,1.985-4.426,4.426v1.988C22.377,47.434,17.5,42.943,16.66,37.15c1.869-0.755,3.192-2.586,3.192-4.723h-2.951  c0,1.182-0.96,2.142-2.142,2.142s-2.142-0.96-2.142-2.142H9.667c0,2.447,1.735,4.495,4.039,4.982  c0.976,7.302,7.129,12.986,14.638,13.225v16.733c0,2.441,1.986,4.427,4.426,4.427h5.427v7.496c-3.731,0.695-6.567,3.971-6.567,7.901  v1.476h16.087v-1.476c0-3.931-2.836-7.205-6.569-7.901v-7.496h18.067v7.496c-3.732,0.695-6.569,3.971-6.569,7.901v1.476h16.087  v-1.476c0-3.931-2.835-7.206-6.566-7.901v-7.496h5.426c2.441,0,4.426-1.985,4.426-4.427v-17.67  c5.671,0.528,10.226,4.915,11.029,10.503c-2.053,0.658-3.544,2.582-3.544,4.851h2.95c0-1.182,0.961-2.142,2.143-2.142  s2.142,0.96,2.142,2.142h2.951C89.688,62.741,88.142,60.789,86.03,60.168z M44.547,85.717h-9.75c0.634-2.091,2.58-3.617,4.873-3.617  C41.967,82.1,43.914,83.626,44.547,85.717z M65.563,85.717h-9.749c0.634-2.091,2.58-3.617,4.876-3.617  C62.985,82.1,64.931,83.626,65.563,85.717z M69.067,67.368c0,0.813-0.662,1.476-1.476,1.476H32.77c-0.813,0-1.475-0.662-1.475-1.476  V45.683c0-0.813,0.662-1.475,1.475-1.475h34.822c0.813,0,1.476,0.662,1.476,1.475V67.368z"></path><path xmlns="http://www.w3.org/2000/svg" d="M43.774,32.919c1.801,0,3.266-1.466,3.266-3.268s-1.465-3.267-3.266-3.267s-3.266,1.465-3.266,3.267  S41.974,32.919,43.774,32.919z M43.774,29.335c0.174,0,0.316,0.141,0.316,0.315c0,0.176-0.142,0.318-0.316,0.318  c-0.174,0-0.315-0.142-0.315-0.318C43.459,29.477,43.6,29.335,43.774,29.335z"></path><path xmlns="http://www.w3.org/2000/svg" d="M56.244,32.919c1.801,0,3.266-1.466,3.266-3.268s-1.465-3.267-3.266-3.267s-3.268,1.465-3.268,3.267  S54.443,32.919,56.244,32.919z M56.244,29.335c0.174,0,0.315,0.141,0.315,0.315c0,0.176-0.142,0.318-0.315,0.318  s-0.316-0.142-0.316-0.318C55.928,29.477,56.07,29.335,56.244,29.335z"></path><path xmlns="http://www.w3.org/2000/svg" d="M41.984,38.821h16.721c4.61,0,8.36-3.972,8.36-8.853c0-4.881-3.75-8.853-8.36-8.853h-7.377V16.28  c1.161-0.554,1.967-1.736,1.967-3.106c0-1.897-1.544-3.442-3.442-3.442c-1.898,0-3.442,1.544-3.442,3.442  c0,1.37,0.807,2.553,1.968,3.106v4.836h-6.394c-4.61,0-8.36,3.972-8.36,8.853C33.624,34.85,37.374,38.821,41.984,38.821z   M49.853,12.682c0.271,0,0.492,0.221,0.492,0.492c0,0.271-0.221,0.492-0.492,0.492c-0.271,0-0.492-0.221-0.492-0.492  C49.36,12.903,49.582,12.682,49.853,12.682z M41.984,24.067h16.721c2.982,0,5.409,2.646,5.409,5.902  c0,3.254-2.427,5.901-5.409,5.901H41.984c-2.982,0-5.41-2.647-5.41-5.901C36.574,26.713,39.002,24.067,41.984,24.067z"></path><path xmlns="http://www.w3.org/2000/svg" d="M41.984,50.624H38.05c-2.441,0-4.426,1.985-4.426,4.426v3.936c0,2.439,1.985,4.426,4.426,4.426h3.934  c2.44,0,4.426-1.986,4.426-4.426V55.05C46.41,52.609,44.424,50.624,41.984,50.624z M43.459,58.985c0,0.813-0.663,1.475-1.476,1.475  H38.05c-0.814,0-1.476-0.661-1.476-1.475V55.05c0-0.813,0.662-1.475,1.476-1.475h3.934c0.813,0,1.476,0.661,1.476,1.475V58.985z"></path><rect xmlns="http://www.w3.org/2000/svg" x="52.804" y="47.674" width="11.803" height="2.95"></rect><rect xmlns="http://www.w3.org/2000/svg" x="52.804" y="52.592" width="11.803" height="2.95"></rect><rect xmlns="http://www.w3.org/2000/svg" x="52.804" y="57.51" width="11.803" height="2.95"></rect><rect xmlns="http://www.w3.org/2000/svg" x="52.804" y="62.428" width="11.803" height="2.95"></rect></g><g id="SvgjsG1127" featureKey="textGroupContainer" transform="matrix(1,0,0,1,355,0)" fill="#ffffff"><rect xmlns="http://www.w3.org/2000/svg" y="0" height="1" width="1" opacity="0"></rect><rect xmlns="http://www.w3.org/2000/svg" y="0" x="-235" width="3" height="224"></rect></g><g id="SvgjsG1128" featureKey="vMvB0T-0" transform="matrix(3.5855143545929864,0,0,3.5855143545929864,138.00000085485323,38.574401467666746)" fill="#ffffff"><path d="M6.62 18.92 c-0.78666 0.72 -1.8534 1.0801 -3.2 1.0801 l-3.42 0 l0 -15 l2.92 0 c0.8 0 1.4667 0.10334 2 0.31 s0.96 0.48666 1.28 0.84 s0.54334 0.76334 0.67 1.23 s0.19 0.95332 0.19 1.46 c0 0.54666 -0.16334 1.0633 -0.49 1.55 s-0.76332 0.94332 -1.31 1.37 c0.21334 0.13334 0.38 0.23668 0.5 0.31002 s0.23334 0.14334 0.34 0.21 c0.17334 0.14666 0.36668 0.32332 0.58002 0.52998 s0.41 0.44666 0.59 0.72 s0.33 0.58334 0.45 0.93 s0.18 0.73332 0.18 1.16 c0 0.74666 -0.11 1.3867 -0.33 1.92 s-0.53666 0.99334 -0.95 1.38 z M3.4 6 l-2.36 0.000039062 l0 5.4 l2.56 0 c0.36 0 0.69 -0.06666 0.99 -0.2 s0.56 -0.31668 0.78 -0.55002 s0.39334 -0.50334 0.52 -0.81 s0.19 -0.64 0.19 -1 c0 -0.25334 -0.03666 -0.54668 -0.11 -0.88002 s-0.21 -0.64334 -0.41 -0.93 s-0.47334 -0.53 -0.82 -0.73 s-0.79332 -0.3 -1.34 -0.3 z M3.52 12.4002 l-2.48 0.000039062 l0 6.54 l2.14 0 c0.44 0 0.88 -0.05334 1.32 -0.16 s0.84 -0.28666 1.2 -0.54 s0.65 -0.58668 0.87 -1 s0.33 -0.92668 0.33 -1.54 c0 -0.56 -0.08666 -1.05 -0.26 -1.47 s-0.41334 -0.76334 -0.72 -1.03 s-0.66666 -0.46666 -1.08 -0.6 s-0.85334 -0.2 -1.32 -0.2 z M16.340000000000003 20 l-1.1 -4.42 l-4.88 0 l-1.1 4.42 l-1 0 l4.14 -15 l0.86 0 l4.12 15 l-1.04 0 z M12.860000000000001 5.9399999999999995 l-2.26 8.68 l4.38 0 z M21.88 20.18 c-1.2267 0 -2.1768 -0.33336 -2.85 -1 s-1.01 -1.6533 -1.01 -2.96 l0 -11.22 l1.08 0 l0 11.16 c0 0.32 0.04334 0.65666 0.13 1.01 s0.23666 0.67334 0.45 0.96 s0.49668 0.52332 0.85002 0.70998 s0.79 0.28 1.31 0.28 c0.57334 0 1.0467 -0.08334 1.42 -0.25 s0.67334 -0.39666 0.9 -0.69 s0.38666 -0.64 0.48 -1.04 s0.14 -0.82666 0.14 -1.28 l0 -10.86 l1.06 0 l0 11.22 c0 1.3333 -0.32334 2.3266 -0.97 2.98 s-1.6433 0.98 -2.99 0.98 z M34.3 16.22 c-0.01334 0.66666 -0.076582 1.25 -0.18992 1.75 s-0.30668 0.91334 -0.58002 1.24 s-0.63334 0.57 -1.08 0.73 s-1.01 0.24 -1.69 0.24 c-1.1733 0 -2.0266 -0.32666 -2.56 -0.98 s-0.8 -1.6467 -0.8 -2.98 l0 -7.4 c0 -1.3333 0.27 -2.3266 0.81 -2.98 s1.4633 -0.98 2.77 -0.98 c1.1733 0 2.0134 0.32666 2.52 0.98 s0.77332 1.6467 0.79998 2.98 l0.02 0.92 l-0.92 0 l-0.02 -1.16 c0 -0.33334 -0.03334 -0.67 -0.1 -1.01 s-0.18666 -0.65 -0.36 -0.93 s-0.41668 -0.50666 -0.73002 -0.68 s-0.73 -0.26 -1.25 -0.26 c-0.50666 0 -0.93 0.08 -1.27 0.24 s-0.61 0.38 -0.81 0.66 s-0.33666 0.61 -0.41 0.99 s-0.11 0.79 -0.11 1.23 l0.04 7.5 c0 0.92 0.17 1.64 0.51 2.16 s0.96334 0.78 1.87 0.78 c0.52 0 0.95 -0.07 1.29 -0.21 s0.60666 -0.33666 0.8 -0.59 s0.33 -0.56 0.41 -0.92 s0.12 -0.75334 0.12 -1.18 l0.02 -1.3 l0.92 0 z M40.02 20.18 c-2.52 0 -3.78 -1.32 -3.78 -3.96 l0 -7.4 c0 -1.3333 0.31666 -2.3266 0.95 -2.98 s1.6567 -0.98 3.07 -0.98 c1.2933 0 2.25 0.33 2.87 0.99 s0.93 1.6367 0.93 2.93 l0 7.44 c0 0.66666 -0.07 1.2467 -0.21 1.74 s-0.37 0.90668 -0.69 1.24 s-0.73666 0.58 -1.25 0.74 s-1.1433 0.24 -1.89 0.24 z M43 8.76 c0 -0.33334 -0.04664 -0.67338 -0.13998 -1.02 s-0.24668 -0.66332 -0.46002 -0.94998 s-0.49668 -0.52 -0.85002 -0.7 s-0.79 -0.27 -1.31 -0.27 c-0.57334 0 -1.05 0.08 -1.43 0.24 s-0.68 0.38334 -0.9 0.67 s-0.37666 0.62332 -0.47 1.01 s-0.14 0.80666 -0.14 1.26 l0 7.1 c0 0.34666 0.04 0.7 0.12 1.06 s0.22334 0.69 0.43 0.99 s0.48666 0.54666 0.84 0.74 s0.79668 0.29 1.33 0.29 c0.57334 0 1.05 -0.07666 1.43 -0.23 s0.68334 -0.36334 0.91 -0.63 s0.39 -0.58332 0.49 -0.94998 s0.15 -0.76332 0.15 -1.19 l0 -7.42 z M54.800000000000004 20 l0 -12.72 l-3.62 8.66 l-1.12 -0.02 l-3.54 -8.66 l0 12.74 l-0.98 0 l0 -15 l1.04 0 l4.06 9.76 l4.08 -9.76 l1.06 0 l0 15 l-0.98 0 z"></path></g><g id="SvgjsG1129" featureKey="vMvB0T-1" transform="matrix(3.0845166311200787,0,0,3.0845166311200787,138,106.00936789671275)" fill="#ffffff"><path d="M7.34 20 l-3.3 -6.22 l-3.06 0 l0 6.22 l-0.98 0 l0 -15 l3.4 0 c0.78666 0 1.46 0.11666 2.02 0.35 s1.02 0.55 1.38 0.95 s0.62666 0.86334 0.8 1.39 s0.26 1.0767 0.26 1.65 c0 0.97334 -0.25 1.85 -0.75 2.63 s-1.1567 1.35 -1.97 1.71 l3.52 6.32 l-1.32 0 z M3.26 5.92 l-2.28 -0.000019531 l0 6.84 l2.42 0 c0.68 0 1.24 -0.10334 1.68 -0.31 s0.78334 -0.47332 1.03 -0.79998 s0.42 -0.7 0.52 -1.12 s0.15 -0.85 0.15 -1.29 c0 -0.46666 -0.08 -0.9 -0.24 -1.3 s-0.39 -0.75 -0.69 -1.05 s-0.66666 -0.53666 -1.1 -0.71 s-0.93 -0.26 -1.49 -0.26 z M13.12 20.18 c-2.52 0 -3.78 -1.32 -3.78 -3.96 l0 -7.4 c0 -1.3333 0.31666 -2.3266 0.95 -2.98 s1.6567 -0.98 3.07 -0.98 c1.2933 0 2.25 0.33 2.87 0.99 s0.93 1.6367 0.93 2.93 l0 7.44 c0 0.66666 -0.07 1.2467 -0.21 1.74 s-0.37 0.90668 -0.69 1.24 s-0.73666 0.58 -1.25 0.74 s-1.1433 0.24 -1.89 0.24 z M16.1 8.76 c0 -0.33334 -0.04664 -0.67338 -0.13998 -1.02 s-0.24668 -0.66332 -0.46002 -0.94998 s-0.49668 -0.52 -0.85002 -0.7 s-0.79 -0.27 -1.31 -0.27 c-0.57334 0 -1.05 0.08 -1.43 0.24 s-0.68 0.38334 -0.9 0.67 s-0.37666 0.62332 -0.47 1.01 s-0.14 0.80666 -0.14 1.26 l0 7.1 c0 0.34666 0.04 0.7 0.12 1.06 s0.22334 0.69 0.43 0.99 s0.48666 0.54666 0.84 0.74 s0.79668 0.29 1.33 0.29 c0.57334 0 1.05 -0.07666 1.43 -0.23 s0.68334 -0.36334 0.91 -0.63 s0.39 -0.58332 0.49 -0.94998 s0.15 -0.76332 0.15 -1.19 l0 -7.42 z M25.12 18.92 c-0.78666 0.72 -1.8534 1.0801 -3.2 1.0801 l-3.42 0 l0 -15 l2.92 0 c0.8 0 1.4667 0.10334 2 0.31 s0.96 0.48666 1.28 0.84 s0.54334 0.76334 0.67 1.23 s0.19 0.95332 0.19 1.46 c0 0.54666 -0.16334 1.0633 -0.49 1.55 s-0.76332 0.94332 -1.31 1.37 c0.21334 0.13334 0.38 0.23668 0.5 0.31002 s0.23334 0.14334 0.34 0.21 c0.17334 0.14666 0.36668 0.32332 0.58002 0.52998 s0.41 0.44666 0.59 0.72 s0.33 0.58334 0.45 0.93 s0.18 0.73332 0.18 1.16 c0 0.74666 -0.11 1.3867 -0.33 1.92 s-0.53666 0.99334 -0.95 1.38 z M21.9 6 l-2.36 0.000039062 l0 5.4 l2.56 0 c0.36 0 0.69 -0.06666 0.99 -0.2 s0.56 -0.31668 0.78 -0.55002 s0.39334 -0.50334 0.52 -0.81 s0.19 -0.64 0.19 -1 c0 -0.25334 -0.03666 -0.54668 -0.11 -0.88002 s-0.21 -0.64334 -0.41 -0.93 s-0.47334 -0.53 -0.82 -0.73 s-0.79332 -0.3 -1.34 -0.3 z M22.02 12.4002 l-2.48 0.000039062 l0 6.54 l2.14 0 c0.44 0 0.88 -0.05334 1.32 -0.16 s0.84 -0.28666 1.2 -0.54 s0.65 -0.58668 0.87 -1 s0.33 -0.92668 0.33 -1.54 c0 -0.56 -0.08666 -1.05 -0.26 -1.47 s-0.41334 -0.76334 -0.72 -1.03 s-0.66666 -0.46666 -1.08 -0.6 s-0.85334 -0.2 -1.32 -0.2 z M31.1 20.18 c-2.52 0 -3.78 -1.32 -3.78 -3.96 l0 -7.4 c0 -1.3333 0.31666 -2.3266 0.95 -2.98 s1.6567 -0.98 3.07 -0.98 c1.2933 0 2.25 0.33 2.87 0.99 s0.93 1.6367 0.93 2.93 l0 7.44 c0 0.66666 -0.07 1.2467 -0.21 1.74 s-0.37 0.90668 -0.69 1.24 s-0.73666 0.58 -1.25 0.74 s-1.1433 0.24 -1.89 0.24 z M34.08 8.76 c0 -0.33334 -0.04664 -0.67338 -0.13998 -1.02 s-0.24668 -0.66332 -0.46002 -0.94998 s-0.49668 -0.52 -0.85002 -0.7 s-0.79 -0.27 -1.31 -0.27 c-0.57334 0 -1.05 0.08 -1.43 0.24 s-0.68 0.38334 -0.9 0.67 s-0.37666 0.62332 -0.47 1.01 s-0.14 0.80666 -0.14 1.26 l0 7.1 c0 0.34666 0.04 0.7 0.12 1.06 s0.22334 0.69 0.43 0.99 s0.48666 0.54666 0.84 0.74 s0.79668 0.29 1.33 0.29 c0.57334 0 1.05 -0.07666 1.43 -0.23 s0.68334 -0.36334 0.91 -0.63 s0.39 -0.58332 0.49 -0.94998 s0.15 -0.76332 0.15 -1.19 l0 -7.42 z M40.28000000000001 6.1 l0 13.9 l-1.16 0 l0 -13.9 l-3.26 0 l0 -1.1 l7.68 0 l0 1.1 l-3.26 0 z M44.84 20 l0 -15 l1.28 0 l0 15 l-1.28 0 z M54.88 16.22 c-0.01334 0.66666 -0.076582 1.25 -0.18992 1.75 s-0.30668 0.91334 -0.58002 1.24 s-0.63334 0.57 -1.08 0.73 s-1.01 0.24 -1.69 0.24 c-1.1733 0 -2.0266 -0.32666 -2.56 -0.98 s-0.8 -1.6467 -0.8 -2.98 l0 -7.4 c0 -1.3333 0.27 -2.3266 0.81 -2.98 s1.4633 -0.98 2.77 -0.98 c1.1733 0 2.0134 0.32666 2.52 0.98 s0.77332 1.6467 0.79998 2.98 l0.02 0.92 l-0.92 0 l-0.02 -1.16 c0 -0.33334 -0.03334 -0.67 -0.1 -1.01 s-0.18666 -0.65 -0.36 -0.93 s-0.41668 -0.50666 -0.73002 -0.68 s-0.73 -0.26 -1.25 -0.26 c-0.50666 0 -0.93 0.08 -1.27 0.24 s-0.61 0.38 -0.81 0.66 s-0.33666 0.61 -0.41 0.99 s-0.11 0.79 -0.11 1.23 l0.04 7.5 c0 0.92 0.17 1.64 0.51 2.16 s0.96334 0.78 1.87 0.78 c0.52 0 0.95 -0.07 1.29 -0.21 s0.60666 -0.33666 0.8 -0.59 s0.33 -0.56 0.41 -0.92 s0.12 -0.75334 0.12 -1.18 l0.02 -1.3 l0.92 0 z M61.02 20.18 c-0.65334 0 -1.2335 -0.086738 -1.7401 -0.26008 s-0.93332 -0.45 -1.28 -0.83 s-0.60332 -0.87666 -0.76998 -1.49 s-0.23666 -1.3533 -0.21 -2.22 l1.2 0 c0 0.42666 0.02 0.87 0.06 1.33 s0.14666 0.88 0.32 1.26 s0.43668 0.69 0.79002 0.93 s0.84334 0.36 1.47 0.36 c0.53334 0 0.98668 -0.08 1.36 -0.24 s0.67668 -0.37334 0.91002 -0.64 s0.39668 -0.58 0.49002 -0.94 s0.14 -0.73334 0.14 -1.12 c0 -0.45334 -0.08334 -0.85 -0.25 -1.19 s-0.38666 -0.64334 -0.66 -0.91 s-0.59334 -0.50332 -0.96 -0.70998 s-0.75 -0.39 -1.15 -0.55 c-0.64 -0.25334 -1.2 -0.50334 -1.68 -0.75 s-0.87334 -0.52332 -1.18 -0.82998 s-0.53666 -0.66332 -0.69 -1.07 s-0.23 -0.90332 -0.23 -1.49 c0 -1.3333 0.35 -2.3266 1.05 -2.98 s1.7033 -0.98 3.01 -0.98 c1.1333 0 2.03 0.33 2.69 0.99 s0.99 1.65 0.99 2.97 l0 1.1 l-1.12 0 l0 -1.2 c0 -0.41334 -0.05 -0.79668 -0.15 -1.15 s-0.25666 -0.66334 -0.47 -0.93 s-0.48334 -0.47666 -0.81 -0.63 s-0.71666 -0.23 -1.17 -0.23 c-1.0667 0 -1.83 0.28 -2.29 0.84 s-0.67 1.3133 -0.63 2.26 c0.01334 0.41334 0.09 0.76668 0.23 1.06 s0.32666 0.55 0.56 0.77 s0.51334 0.41666 0.84 0.59 s0.69 0.34668 1.09 0.52002 c0.46666 0.2 0.93 0.41334 1.39 0.64 s0.89 0.50666 1.29 0.84 c0.4 0.34666 0.73 0.75 0.99 1.21 s0.39 1.03 0.39 1.71 c0 1.32 -0.33666 2.31 -1.01 2.97 s-1.61 0.99 -2.81 0.99 z"></path></g>
			</g>
		</svg>
	